REM DIRINDEX 1\2,1\4,1\5,1\6,1\7,1\3\8,1\3\9,1\3\10
REM DIRNAME cjc113,folder01,folder02,folder03,folder04,folder05,folder06,folder07,folder08,folder09
TITLE ""
FILE "DB4500_5th_2A_35.mp3" MP3
  TRACK 01 AUDIO
    TITLE "8:cjc113_1306"
    INDEX 01 00:00:00
  TRACK 02 AUDIO
    TITLE "0:"
    INDEX 01 00:01:07
  TRACK 03 AUDIO
    TITLE "9:cjc113_1307"
    INDEX 01 00:01:28
  TRACK 04 AUDIO
    TITLE "0:"
    INDEX 01 00:02:28
  TRACK 05 AUDIO
    TITLE "10:cjc113_1308"
    INDEX 01 00:02:47
  TRACK 06 AUDIO
    TITLE "0:"
    INDEX 01 00:05:36
  TRACK 07 AUDIO
    TITLE "10:cjc113_1309"
    INDEX 01 00:06:18
  TRACK 08 AUDIO
    TITLE "0:"
    INDEX 01 00:09:30
  TRACK 09 AUDIO
    TITLE "8:cjc113_1310"
    INDEX 01 00:10:02
  TRACK 10 AUDIO
    TITLE "0:"
    INDEX 01 00:11:13
  TRACK 11 AUDIO
    TITLE "9:cjc113_1311"
    INDEX 01 00:11:33
  TRACK 12 AUDIO
    TITLE "0:"
    INDEX 01 00:12:63
  TRACK 13 AUDIO
    TITLE "10:cjc113_1312"
    INDEX 01 00:13:12
  TRACK 14 AUDIO
    TITLE "0:"
    INDEX 01 00:15:72
  TRACK 15 AUDIO
    TITLE "10:cjc113_1313"
    INDEX 01 00:16:38
  TRACK 16 AUDIO
    TITLE "0:"
    INDEX 01 00:19:52
  TRACK 17 AUDIO
    TITLE "8:cjc113_1314"
    INDEX 01 00:20:22
  TRACK 18 AUDIO
    TITLE "0:"
    INDEX 01 00:21:33
  TRACK 19 AUDIO
    TITLE "9:cjc113_1315"
    INDEX 01 00:21:53
  TRACK 20 AUDIO
    TITLE "0:"
    INDEX 01 00:22:64
  TRACK 21 AUDIO
    TITLE "10:cjc113_1316"
    INDEX 01 00:23:10
  TRACK 22 AUDIO
    TITLE "0:"
    INDEX 01 00:26:42
  TRACK 23 AUDIO
    TITLE "8:cjc113_1317"
    INDEX 01 00:27:14
  TRACK 24 AUDIO
    TITLE "0:"
    INDEX 01 00:28:21
  TRACK 25 AUDIO
    TITLE "9:cjc113_1318"
    INDEX 01 00:28:45
  TRACK 26 AUDIO
    TITLE "0:"
    INDEX 01 00:30:10
  TRACK 27 AUDIO
    TITLE "10:cjc113_1319"
    INDEX 01 00:30:34
  TRACK 28 AUDIO
    TITLE "0:"
    INDEX 01 00:33:73
  TRACK 29 AUDIO
    TITLE "8:cjc113_1320"
    INDEX 01 00:34:47
  TRACK 30 AUDIO
    TITLE "0:"
    INDEX 01 00:35:55
  TRACK 31 AUDIO
    TITLE "9:cjc113_1321"
    INDEX 01 00:35:74
  TRACK 32 AUDIO
    TITLE "0:"
    INDEX 01 00:38:10
  TRACK 33 AUDIO
    TITLE "10:cjc113_1322"
    INDEX 01 00:38:31
  TRACK 34 AUDIO
    TITLE "0:"
    INDEX 01 00:42:04
  TRACK 35 AUDIO
    TITLE "10:cjc113_1323"
    INDEX 01 00:43:13
  TRACK 36 AUDIO
    TITLE "0:"
    INDEX 01 00:46:07
  TRACK 37 AUDIO
    TITLE "8:cjc113_1324"
    INDEX 01 00:46:54
  TRACK 38 AUDIO
    TITLE "0:"
    INDEX 01 00:47:60
  TRACK 39 AUDIO
    TITLE "9:cjc113_1325"
    INDEX 01 00:48:08
  TRACK 40 AUDIO
    TITLE "0:"
    INDEX 01 00:49:43
  TRACK 41 AUDIO
    TITLE "10:cjc113_1326"
    INDEX 01 00:49:65
  TRACK 42 AUDIO
    TITLE "0:"
    INDEX 01 00:54:21
  TRACK 43 AUDIO
    TITLE "8:cjc113_1327"
    INDEX 01 00:54:70
  TRACK 44 AUDIO
    TITLE "0:"
    INDEX 01 00:56:18
  TRACK 45 AUDIO
    TITLE "9:cjc113_1328"
    INDEX 01 00:56:35
  TRACK 46 AUDIO
    TITLE "0:"
    INDEX 01 00:57:52
  TRACK 47 AUDIO
    TITLE "10:cjc113_1329"
    INDEX 01 00:57:74
  TRACK 48 AUDIO
    TITLE "0:"
    INDEX 01 01:00:72
  TRACK 49 AUDIO
    TITLE "8:cjc113_1330"
    INDEX 01 01:01:40
  TRACK 50 AUDIO
    TITLE "0:"
    INDEX 01 01:02:61
  TRACK 51 AUDIO
    TITLE "9:cjc113_1331"
    INDEX 01 01:03:10
  TRACK 52 AUDIO
    TITLE "0:"
    INDEX 01 01:04:45
  TRACK 53 AUDIO
    TITLE "10:cjc113_1332"
    INDEX 01 01:04:66
  TRACK 54 AUDIO
    TITLE "0:"
    INDEX 01 01:07:45
  TRACK 55 AUDIO
    TITLE "8:cjc113_1333"
    INDEX 01 01:08:19
  TRACK 56 AUDIO
    TITLE "0:"
    INDEX 01 01:09:28
  TRACK 57 AUDIO
    TITLE "9:cjc113_1334"
    INDEX 01 01:09:48
  TRACK 58 AUDIO
    TITLE "0:"
    INDEX 01 01:11:09
  TRACK 59 AUDIO
    TITLE "10:cjc113_1335"
    INDEX 01 01:11:31
  TRACK 60 AUDIO
    TITLE "0:"
    INDEX 01 01:14:68
  TRACK 61 AUDIO
    TITLE "8:cjc113_1336"
    INDEX 01 01:15:42
  TRACK 62 AUDIO
    TITLE "0:"
    INDEX 01 01:16:65
  TRACK 63 AUDIO
    TITLE "9:cjc113_1337"
    INDEX 01 01:17:10
  TRACK 64 AUDIO
    TITLE "0:"
    INDEX 01 01:18:58
  TRACK 65 AUDIO
    TITLE "10:cjc113_1338"
    INDEX 01 01:19:03
  TRACK 66 AUDIO
    TITLE "0:"
    INDEX 01 01:22:25
  TRACK 67 AUDIO
    TITLE "8:cjc113_1339"
    INDEX 01 01:22:72
  TRACK 68 AUDIO
    TITLE "0:"
    INDEX 01 01:24:24
  TRACK 69 AUDIO
    TITLE "9:cjc113_1340"
    INDEX 01 01:24:41
  TRACK 70 AUDIO
    TITLE "0:"
    INDEX 01 01:25:62
  TRACK 71 AUDIO
    TITLE "10:cjc113_1341"
    INDEX 01 01:26:09
  TRACK 72 AUDIO
    TITLE "0:"
    INDEX 01 01:29:33
